<svg width="49" height="45" viewBox="0 0 49 45" fill="none" xmlns="http://www.w3.org/2000/svg">
<path d="M24.8541 45C24.1208 45 23.5041 44.7167 23.0041 44.15C22.5374 43.5833 22.3041 42.65 22.3041 41.35C22.3041 40.9167 22.3541 40.45 22.4541 39.95C22.5541 39.4167 22.7374 38.8833 23.0041 38.35C21.3374 34.2167 19.9374 30.2 18.8041 26.3C17.6708 22.4 16.7041 18.3167 15.9041 14.05C14.8374 16.25 13.8208 18.5333 12.8541 20.9C11.9208 23.2333 11.0374 25.5167 10.2041 27.75C9.37077 29.9833 8.62077 32.0667 7.9541 34C7.28744 35.9333 6.7041 37.6 6.2041 39C5.67077 40.6667 5.13744 41.7833 4.6041 42.35C4.07077 42.95 3.52077 43.25 2.9541 43.25C2.18744 43.25 1.6041 43.0667 1.2041 42.7C0.837435 42.3333 0.654102 41.6833 0.654102 40.75C0.654102 40.05 0.837435 38.9667 1.2041 37.5C1.57077 36.0333 2.07077 34.3333 2.7041 32.4C3.37077 30.4667 4.12077 28.4333 4.9541 26.3C5.78744 24.1667 6.67077 22.0833 7.6041 20.05C8.57077 18.0167 9.53744 16.1833 10.5041 14.55C11.4708 12.8833 12.3874 11.5667 13.2541 10.6C14.1541 9.6 14.9708 9.1 15.7041 9.1C16.4708 9.1 17.1208 9.25 17.6541 9.55C18.2208 9.85 18.8374 10.6333 19.5041 11.9C19.9374 12.7667 20.4374 14.0333 21.0041 15.7C21.5708 17.3333 22.1374 19.1833 22.7041 21.25C23.2708 23.2833 23.8208 25.3833 24.3541 27.55C24.8874 29.6833 25.3541 31.6667 25.7541 33.5C27.0874 27.3333 28.2541 21.9333 29.2541 17.3C30.2541 12.6333 31.0208 8.98333 31.5541 6.35C32.1208 3.71666 32.4208 2.33333 32.4541 2.2C32.6541 1.33333 32.8708 0.799998 33.1041 0.599997C33.3374 0.399997 33.6708 0.299997 34.1041 0.299997C34.7041 0.299997 35.2874 0.549997 35.8541 1.05C36.4541 1.51666 36.7541 2.16666 36.7541 3C36.7541 3.4 36.6541 4.31667 36.4541 5.75C36.2874 7.18333 36.0208 8.98333 35.6541 11.15C35.3208 13.2833 34.8874 15.6667 34.3541 18.3C33.8208 20.9 33.2041 23.6167 32.5041 26.45C31.8041 29.25 31.0208 32.0333 30.1541 34.8C29.3208 37.5333 28.4041 40.1167 27.4041 42.55C27.0374 43.4833 26.6041 44.1167 26.1041 44.45C25.6374 44.8167 25.2208 45 24.8541 45ZM44.6076 42.75C43.8743 42.75 43.1576 42.5167 42.4576 42.05C41.791 41.5833 41.4576 40.8167 41.4576 39.75C41.4576 38.8833 41.6743 38.1833 42.1076 37.65C42.541 37.1167 43.041 36.7333 43.6076 36.5C44.1743 36.2333 44.6743 36.1 45.1076 36.1C45.541 36.1 46.0243 36.2 46.5576 36.4C47.1243 36.6 47.6076 36.95 48.0076 37.45C48.4076 37.9167 48.6076 38.6167 48.6076 39.55C48.6076 40.4833 48.2076 41.25 47.4076 41.85C46.6076 42.45 45.6743 42.75 44.6076 42.75Z" fill="#0E0F10"/>
</svg>
